<svg t="1651139357393" class="icon" viewBox="0 0 1024 1024" version="1.1" xmlns="http://www.w3.org/2000/svg" p-id="4169" width="200" height="200"><path d="M993.6896 339.968c-25.3952-71.2704-104.448-115.0976-223.232-123.6992-69.2224-60.6208-159.744-97.0752-258.4576-97.0752-194.56 0-356.352 142.1312-387.4816 328.0896-86.4256 81.92-119.6032 165.888-94.208 237.1584 25.3952 71.2704 104.448 115.0976 223.232 123.6992 69.2224 60.6208 159.744 97.0752 258.4576 97.0752 194.56 0 356.352-142.1312 387.4816-328.0896 86.016-81.92 119.6032-165.888 94.208-237.1584z m-57.7536 20.48c11.8784 33.5872 0.4096 75.3664-32.3584 119.6032-5.7344-70.8608-30.3104-136.3968-68.8128-192.1024 53.6576 14.336 89.2928 39.3216 101.1712 72.4992zM512 180.6336c182.6816 0 331.3664 148.6848 331.3664 331.3664 0 11.4688-0.8192 22.9376-1.6384 34.4064-67.1744 58.9824-160.5632 111.4112-264.192 148.6848-103.6288 36.864-208.896 55.296-298.1888 52.4288-60.6208-60.2112-98.304-143.36-98.304-235.52-0.4096-182.6816 148.2752-331.3664 330.9568-331.3664zM88.064 663.552c-11.8784-33.5872-0.4096-75.3664 32.3584-119.6032 5.7344 70.8608 30.3104 136.3968 68.8128 192.1024-53.6576-14.336-89.2928-39.3216-101.1712-72.4992zM512 843.3664c-54.8864 0-106.496-13.5168-151.9616-36.864 75.776-6.5536 157.696-24.9856 237.9776-53.6576s155.2384-66.3552 218.3168-109.3632c-51.2 117.5552-168.3456 199.8848-304.3328 199.8848z" fill="#231815" p-id="4170"></path></svg>
