<svg t="1649301216968" class="icon" viewBox="0 0 1024 1024" version="1.1" xmlns="http://www.w3.org/2000/svg" p-id="3250" width="200" height="200"><path d="M504.337067 880.64a58.5728 58.5728 0 0 1-42.786134-17.800533c-11.246933-11.246933-16.9472-25.344-16.9472-41.9328v-30.139734a341.0432 341.0432 0 0 1-137.6256-53.725866 56.1152 56.1152 0 0 1-17.117866 30.651733c-10.2912 11.076267-24.9344 17.373867-41.5232 17.373867a58.5728 58.5728 0 0 1-42.786134-17.800534c-11.246933-11.246933-16.9472-25.344-16.9472-41.9328V682.666667a17.066667 17.066667 0 0 1 17.066667-17.066667h22.306133c-34.235733-40.789333-57.873067-86.647467-70.468266-136.7552-14.2848-1.194667-26.811733-7.099733-37.307734-17.578667-11.246933-11.246933-16.9472-25.344-16.9472-41.9328V426.666667a17.066667 17.066667 0 0 1 17.066667-17.066667H146.773333c3.7376-52.087467 17.7664-100.5568 41.813334-144.384v-7.0144-47.445333a17.066667 17.066667 0 0 1 17.066666-17.066667h35.1232c3.208533-3.464533 6.536533-6.912 9.984-10.359467 56.695467-56.695467 124.023467-90.6752 200.209067-101.085866a16.9472 16.9472 0 0 1 10.683733-3.754667h85.333334c4.0448 0 7.748267 1.416533 10.683733 3.754667 76.202667 10.410667 143.530667 44.3904 200.209067 101.085866 3.447467 3.447467 6.775467 6.894933 9.984 10.359467h35.1232a17.066667 17.066667 0 0 1 17.066666 17.066667v54.442666c24.046933 43.844267 38.075733 92.3136 41.813334 144.384h26.453333a17.066667 17.066667 0 0 1 17.066667 17.066667v42.666667c0 16.571733-6.2976 31.214933-18.210134 42.3424-8.891733 9.557333-20.992 15.5648-34.781866 17.0496-12.987733 49.9712-36.983467 95.8464-71.611734 136.891733h22.237867a17.066667 17.066667 0 0 1 17.066667 17.066667v42.666666c0 16.571733-6.2976 31.214933-18.210134 42.3424-10.325333 11.093333-24.9856 17.390933-41.540266 17.390934a58.606933 58.606933 0 0 1-42.786134-17.800534 56.081067 56.081067 0 0 1-15.9232-30.173866 339.626667 339.626667 0 0 1-137.5744 53.742933V820.906667c0 16.571733-6.2976 31.214933-18.210133 42.3424-10.2912 11.076267-24.951467 17.390933-41.506133 17.390933z m-25.6-85.333333v25.6c0 7.406933 2.2016 13.056 6.946133 17.800533a24.917333 24.917333 0 0 0 18.653867 7.799467c7.2704 0 12.629333-2.286933 17.408-7.389867 5.922133-5.5808 8.192-10.9568 8.192-18.210133v-25.6h-51.2z m15.616-34.133334h20.8384c69.768533-2.0992 132.096-24.098133 185.3952-65.3824V682.666667a17.066667 17.066667 0 0 1 17.066666-17.066667h16.8448c41.5232-41.710933 69.802667-89.685333 84.1216-142.6944a64.034133 64.034133 0 0 1-15.752533-11.6224c-11.246933-11.246933-16.9472-25.361067-16.9472-41.949867V426.666667a17.066667 17.066667 0 0 1 17.066667-17.066667h24.661333c-3.1232-39.509333-12.782933-76.6464-28.808533-110.848-10.325333 9.352533-23.6544 14.421333-38.519467 14.421333a58.606933 58.606933 0 0 1-42.786133-17.800533c-11.246933-11.264-16.9472-25.361067-16.9472-41.9328v-42.666667a17.066667 17.066667 0 0 1 17.066666-17.066666h1.553067c-45.243733-40.482133-97.28-65.962667-155.153067-75.9296V138.24c0 16.554667-6.2976 31.197867-18.210133 42.325333-10.308267 11.093333-24.951467 17.408-41.5232 17.408a58.5728 58.5728 0 0 1-42.786133-17.800533c-11.246933-11.264-16.9472-25.361067-16.9472-41.9328V117.777067c-57.856 9.966933-109.892267 35.447467-155.136 75.9296h1.536a17.066667 17.066667 0 0 1 17.066666 17.066666v42.666667c0 16.554667-6.2976 31.197867-18.210133 42.325333-10.274133 11.093333-24.917333 17.408-41.5232 17.408a58.180267 58.180267 0 0 1-38.690133-14.0288c-15.940267 34.082133-25.531733 71.082667-28.637867 110.455467h24.661333a17.066667 17.066667 0 0 1 17.066667 17.066667v42.666666c0 16.571733-6.2976 31.214933-18.210133 42.3424a51.950933 51.950933 0 0 1-13.431467 10.7008c13.806933 53.469867 41.745067 101.614933 83.114667 143.223467h16.7936a17.066667 17.066667 0 0 1 17.066666 17.066667v13.090133c53.367467 41.301333 116.002133 63.317333 186.299734 65.416533z m240.366933-57.924266a11.025067 11.025067 0 0 1 0.017067 0.750933v21.333333c0 7.406933 2.218667 13.056 6.946133 17.800534 5.3248 5.307733 11.246933 7.799467 18.653867 7.799466 7.2704 0 12.629333-2.286933 17.408-7.389866 5.922133-5.5808 8.192-10.9568 8.192-18.210134V699.733333H734.72v3.515734zM222.737067 699.733333v25.6c0 7.406933 2.2016 13.056 6.946133 17.800534 10.496 10.461867 26.5216 10.666667 36.027733 0.426666 5.9392-5.597867 8.209067-10.973867 8.209067-18.2272v-20.565333l-0.017067-0.768V699.733333h-51.165866z m617.864533-204.8h5.051733c7.2704 0 12.629333-2.269867 17.390934-7.389866 5.9392-5.597867 8.209067-10.9568 8.209066-18.210134V443.733333h-51.2v25.6c0 7.406933 2.218667 13.056 6.946134 17.800534 4.027733 4.010667 8.482133 6.587733 13.602133 7.799466zM137.386667 443.733333v25.6c0 7.406933 2.2016 13.056 6.946133 17.800534 7.1168 7.1168 16.2816 8.8064 26.129067 7.168 2.884267-0.699733 6.434133-2.9184 9.745066-6.570667 6.0928-5.768533 8.379733-11.127467 8.379734-18.397867V443.733333h-51.2z m597.333333-215.893333v25.6c0 7.389867 2.218667 13.056 6.946133 17.800533a24.917333 24.917333 0 0 0 18.653867 7.799467c7.2704 0 12.629333-2.269867 17.390933-7.389867a30.378667 30.378667 0 0 0 7.543467-11.264 14.165333 14.165333 0 0 0 0.6656-2.7136V227.84h-51.2z m-510.8736 33.9968c0.938667 3.328 2.833067 6.417067 5.819733 9.403733 10.478933 10.461867 26.5216 10.6496 36.027734 0.426667 5.9392-5.614933 8.209067-10.973867 8.209066-18.2272v-25.6h-51.2v29.781333c0.034133 0.3072 0.2048 1.314133 0.8192 3.208534l0.068267 0.221866a8.362667 8.362667 0 0 1 0.256 0.785067zM478.72 113.783467V138.24c0 7.389867 2.2016 13.056 6.9632 17.800533 5.307733 5.3248 11.229867 7.799467 18.6368 7.799467 7.2704 0 12.629333-2.269867 17.390933-7.389867 5.922133-5.5808 8.209067-10.9568 8.209067-18.210133V113.749333a668.142933 668.142933 0 0 0-17.493333-1.109333h-15.377067c-6.1952 0.290133-12.305067 0.682667-18.3296 1.143467zM674.986667 614.4a17.015467 17.015467 0 0 1-12.066134-5.000533l-158.600533-158.600534-158.600533 158.600534a17.0496 17.0496 0 1 1-24.132267-24.132267L480.187733 426.666667l-158.600533-158.600534a17.0496 17.0496 0 1 1 24.132267-24.132266l158.600533 158.600533 158.600533-158.600533a17.0496 17.0496 0 1 1 24.132267 24.132266L528.452267 426.666667l158.600533 158.600533A17.0496 17.0496 0 0 1 674.986667 614.4z" p-id="3251" fill="#b7d28d"></path><path d="M674.986667 955.733333H334.045867a6.024533 6.024533 0 0 1-0.785067 0H248.32a17.066667 17.066667 0 1 1 0-34.133333h73.028267l166.775466-500.3264a17.066667 17.066667 0 0 1 32.392534 0L687.291733 921.6h73.028267a17.066667 17.066667 0 1 1 0 34.133333h-85.333333z m-317.661867-34.133333h293.973333L504.32 480.631467 357.3248 921.6z" p-id="3252" fill="#b7d28d"></path></svg>
